<mxfile host="app.diagrams.net" agent="Mozilla/5.0 (Macintosh; Intel Mac OS X 10_15_7) AppleWebKit/605.1.15 (KHTML, like Gecko) Version/18.1.1 Safari/605.1.15" version="25.0.3">
  <diagram name="Page-1" id="VlRkN-xOVygPYa-iD9Ir">
    <mxGraphModel dx="2017" dy="795" grid="1" gridSize="10" guides="1" tooltips="1" connect="1" arrows="1" fold="1" page="1" pageScale="1" pageWidth="1169" pageHeight="827" background="none" math="0" shadow="0">
      <root>
        <mxCell id="0" />
        <mxCell id="1" parent="0" />
        <mxCell id="pD8juBFKP1GN8B8eYQTb-4" style="edgeStyle=none;curved=1;rounded=0;orthogonalLoop=1;jettySize=auto;html=1;fontSize=12;startSize=8;endSize=8;strokeColor=#CCCCCC;strokeWidth=3;entryX=0;entryY=0.25;entryDx=0;entryDy=0;exitX=0.143;exitY=0.036;exitDx=0;exitDy=0;exitPerimeter=0;" edge="1" parent="1" source="pD8juBFKP1GN8B8eYQTb-1" target="pD8juBFKP1GN8B8eYQTb-3">
          <mxGeometry relative="1" as="geometry">
            <mxPoint x="44.10256410256443" y="402.5" as="sourcePoint" />
            <mxPoint x="140" y="117.5" as="targetPoint" />
            <Array as="points">
              <mxPoint x="40" y="242.5" />
              <mxPoint x="60" y="132.5" />
              <mxPoint x="100" y="110" />
            </Array>
          </mxGeometry>
        </mxCell>
        <mxCell id="pD8juBFKP1GN8B8eYQTb-5" style="edgeStyle=none;curved=1;rounded=0;orthogonalLoop=1;jettySize=auto;html=1;fontSize=12;startSize=8;endSize=8;exitX=0.5;exitY=0;exitDx=0;exitDy=0;exitPerimeter=0;entryX=0;entryY=0.5;entryDx=0;entryDy=0;strokeColor=#33FF33;strokeWidth=3;" edge="1" parent="1" source="pD8juBFKP1GN8B8eYQTb-1" target="pD8juBFKP1GN8B8eYQTb-3">
          <mxGeometry relative="1" as="geometry">
            <mxPoint x="110" y="160" as="targetPoint" />
            <mxPoint x="40" y="390" as="sourcePoint" />
            <Array as="points">
              <mxPoint x="60" y="230" />
              <mxPoint x="90" y="130" />
            </Array>
          </mxGeometry>
        </mxCell>
        <mxCell id="pD8juBFKP1GN8B8eYQTb-6" style="edgeStyle=none;curved=1;rounded=0;orthogonalLoop=1;jettySize=auto;html=1;entryX=0;entryY=0.75;entryDx=0;entryDy=0;fontSize=12;startSize=8;endSize=8;exitX=0.857;exitY=0;exitDx=0;exitDy=0;exitPerimeter=0;strokeWidth=3;" edge="1" parent="1" source="pD8juBFKP1GN8B8eYQTb-1" target="pD8juBFKP1GN8B8eYQTb-3">
          <mxGeometry relative="1" as="geometry">
            <mxPoint x="90" y="390" as="sourcePoint" />
            <Array as="points">
              <mxPoint x="80" y="270" />
              <mxPoint x="100" y="160" />
            </Array>
          </mxGeometry>
        </mxCell>
        <mxCell id="pD8juBFKP1GN8B8eYQTb-27" style="edgeStyle=none;curved=1;rounded=0;orthogonalLoop=1;jettySize=auto;html=1;exitX=1;exitY=0.5;exitDx=0;exitDy=0;exitPerimeter=0;entryX=0;entryY=0.5;entryDx=0;entryDy=0;fontSize=12;startSize=8;endSize=8;strokeWidth=3;strokeColor=#33FF99;" edge="1" parent="1" source="pD8juBFKP1GN8B8eYQTb-1" target="pD8juBFKP1GN8B8eYQTb-24">
          <mxGeometry relative="1" as="geometry" />
        </mxCell>
        <mxCell id="pD8juBFKP1GN8B8eYQTb-29" value="" style="edgeStyle=none;curved=1;rounded=0;orthogonalLoop=1;jettySize=auto;html=1;fontSize=12;startSize=8;endSize=8;entryX=0;entryY=0.75;entryDx=0;entryDy=0;strokeColor=#B3B3B3;strokeWidth=3;flowAnimation=0;" edge="1" parent="1" source="pD8juBFKP1GN8B8eYQTb-1" target="pD8juBFKP1GN8B8eYQTb-24">
          <mxGeometry relative="1" as="geometry">
            <Array as="points" />
          </mxGeometry>
        </mxCell>
        <mxCell id="pD8juBFKP1GN8B8eYQTb-1" value="" style="pointerEvents=1;verticalLabelPosition=bottom;shadow=0;dashed=0;align=center;html=1;verticalAlign=top;shape=mxgraph.electrical.miscellaneous.ac_out" vertex="1" parent="1">
          <mxGeometry x="30" y="400" width="70" height="70" as="geometry" />
        </mxCell>
        <mxCell id="pD8juBFKP1GN8B8eYQTb-3" value="" style="rounded=1;whiteSpace=wrap;html=1;" vertex="1" parent="1">
          <mxGeometry x="130" y="100" width="120" height="60" as="geometry" />
        </mxCell>
        <mxCell id="pD8juBFKP1GN8B8eYQTb-9" value="" style="ellipse;whiteSpace=wrap;html=1;fillColor=none;" vertex="1" parent="1">
          <mxGeometry y="60" width="40" height="40" as="geometry" />
        </mxCell>
        <mxCell id="pD8juBFKP1GN8B8eYQTb-11" value="AC" style="text;html=1;align=center;verticalAlign=middle;whiteSpace=wrap;rounded=0;fontSize=16;" vertex="1" parent="1">
          <mxGeometry x="-10" y="65" width="60" height="30" as="geometry" />
        </mxCell>
        <mxCell id="pD8juBFKP1GN8B8eYQTb-15" value="ezOutlet5" style="text;html=1;align=center;verticalAlign=middle;whiteSpace=wrap;rounded=0;fontSize=16;" vertex="1" parent="1">
          <mxGeometry x="160" y="110" width="60" height="40" as="geometry" />
        </mxCell>
        <mxCell id="pD8juBFKP1GN8B8eYQTb-22" value="AC" style="text;html=1;align=center;verticalAlign=middle;whiteSpace=wrap;rounded=0;fontSize=16;" vertex="1" parent="1">
          <mxGeometry y="485" width="60" height="30" as="geometry" />
        </mxCell>
        <mxCell id="pD8juBFKP1GN8B8eYQTb-23" value="" style="ellipse;whiteSpace=wrap;html=1;fillColor=none;" vertex="1" parent="1">
          <mxGeometry x="10" y="480" width="40" height="40" as="geometry" />
        </mxCell>
        <mxCell id="pD8juBFKP1GN8B8eYQTb-24" value="" style="rounded=1;whiteSpace=wrap;html=1;" vertex="1" parent="1">
          <mxGeometry x="150" y="400" width="120" height="110" as="geometry" />
        </mxCell>
        <mxCell id="pD8juBFKP1GN8B8eYQTb-25" value="" style="endArrow=classic;html=1;rounded=0;fontSize=12;startSize=8;endSize=8;curved=1;exitX=1;exitY=0.143;exitDx=0;exitDy=0;exitPerimeter=0;entryX=0;entryY=0.25;entryDx=0;entryDy=0;strokeWidth=3;" edge="1" parent="1" source="pD8juBFKP1GN8B8eYQTb-1" target="pD8juBFKP1GN8B8eYQTb-24">
          <mxGeometry width="50" height="50" relative="1" as="geometry">
            <mxPoint x="180" y="290" as="sourcePoint" />
            <mxPoint x="230" y="240" as="targetPoint" />
            <Array as="points">
              <mxPoint x="120" y="430" />
            </Array>
          </mxGeometry>
        </mxCell>
      </root>
    </mxGraphModel>
  </diagram>
</mxfile>
